<svg id="Layer_1" enable-background="new 0 0 512.462 512.462" height="512" viewBox="0 0 512.462 512.462" width="512" xmlns="http://www.w3.org/2000/svg"><g><g><path d="m499.416 243.185c0 59.536-21.394 114.075-56.914 156.348-44.61 53.092-112.381 64.007-187.152 64.007-134.307 0-228.52-86.048-228.52-220.356 0-49.097.766-94.796 25.789-133.02 43.428-66.339 118.402-110.164 203.612-110.164 134.307 0 243.185 108.878 243.185 243.185z" fill="#ff640a"/></g><g fill="#e04955"><path d="m442.174 399.648c-3.541 1.396-7.196-1.517-6.834-5.306.084-.877.126-1.765.126-2.664v-286.065c0-15.357-12.45-27.807-27.807-27.807h-136.562-25.371c-15.357 0-27.807 12.45-27.807 27.807v250.583c0 8.24-9.525 12.882-15.979 7.76-.131-.104-.262-.208-.393-.312-11.236-8.956-15.612-23.887-11.125-37.537 3.18-9.673 3.225-19.771 2.661-26.858-.437-5.488-5.301-9.568-10.775-8.982-9.558 1.023-24.302 4.127-34.686 13.413-2.904-4.565-5.662-9.232-8.263-13.997 9.368-.456 31.33-3.108 43.477-17.607 8.089-9.656 10.241-22.686 10.423-33.062.175-9.945-8.852-17.507-18.613-15.592-10.184 1.998-22.635 6.4-30.724 16.057-4.236 5.057-6.834 11.04-8.383 17.082v-24.781c7.508-7.815 18.254-21.78 18.254-37.714 0-15.773-10.533-29.622-18.029-37.48-3.212-3.367-7.779-5.286-12.396-4.715-6.175.765-12.316-4.448-11.35-11.557.074-.544.149-1.086.227-1.629 5.273-36.938-43.697-54.571-63.257-22.797-22.793 37.027-35.941 80.627-35.941 127.298 0 133.762 111.303 244.19 245.061 243.179 74.013-.559 140.146-34.193 184.382-86.84-.106.039-.211.081-.316.123z"/><path d="m136.109 118.294c0 17.571 14.244 31.815 31.815 31.815.005 0 .009-.001.014-.001 17.447 0 31.801-14.161 31.801-31.814 0-13.029-17.494-48.417-26.538-65.839-2.214-4.265-8.308-4.264-10.521.002-9.934 19.152-26.571 52.951-26.571 65.837z"/></g><g><g><g><path d="m139.536 184.837c0 24.486-25.382 44.335-25.382 44.335s-25.382-19.849-25.382-44.335 25.382-44.335 25.382-44.335 25.382 19.85 25.382 44.335z" fill="#ffd23c"/></g><g><path d="m99.341 230.25c15.724 18.77 9.013 50.285 9.013 50.285s-32.203 1.083-47.927-17.687-9.013-50.285-9.013-50.285 32.203-1.083 47.927 17.687z" fill="#fcb54c"/></g><g><path d="m99.341 298.245c15.724 18.77 9.013 50.285 9.013 50.285s-32.203 1.083-47.927-17.687-9.013-50.285-9.013-50.285 32.203-1.083 47.927 17.687z" fill="#fcb54c"/></g><g><path d="m99.341 366.241c15.724 18.77 9.013 50.285 9.013 50.285s-32.203 1.083-47.927-17.687-9.013-50.285-9.013-50.285 32.203-1.083 47.927 17.687z" fill="#fcb54c"/></g><g><path d="m99.341 434.236c15.724 18.77 9.013 50.285 9.013 50.285s-32.203 1.083-47.927-17.687-9.013-50.285-9.013-50.285 32.203-1.083 47.927 17.687z" fill="#fcb54c"/></g><g><path d="m129.665 230.25c-15.724 18.77-9.013 50.285-9.013 50.285s32.203 1.083 47.927-17.687 9.013-50.285 9.013-50.285-32.203-1.083-47.927 17.687z" fill="#ffd23c"/></g><g><path d="m129.665 298.245c-15.724 18.77-9.013 50.285-9.013 50.285s32.203 1.083 47.927-17.687 9.013-50.285 9.013-50.285-32.203-1.083-47.927 17.687z" fill="#ffd23c"/></g><g><path d="m129.665 366.241c-15.724 18.77-9.013 50.285-9.013 50.285s32.203 1.083 47.927-17.687 9.013-50.285 9.013-50.285-32.203-1.083-47.927 17.687z" fill="#ffd23c"/></g><g><path d="m129.665 434.236c-15.724 18.77-9.013 50.285-9.013 50.285s32.203 1.083 47.927-17.687 9.013-50.285 9.013-50.285-32.203-1.083-47.927 17.687z" fill="#ffd23c"/></g><g><path d="m107.027 217.066h14.255v295.396h-14.255z" fill="#ffe046"/></g></g><g><path d="m421.039 385.501c.109-1.002.17-2.019.17-3.05v-286.065c0-15.357-12.45-27.807-27.807-27.807h-138.816v316.921h166.453z" fill="#766d78"/></g><g><path d="m355.427 383.033c-9.139 0-17.59-4.322-23.467-11.321-3.456-4.116-8.636-6.733-14.434-6.733-6.668 0-12.519 3.461-15.87 8.683-3.729 5.813-10.119 9.37-17.025 9.37-.449 0-.895-.011-1.339-.032-15.985-.758-15.121-24.841.882-24.841h121.336l.143-243.583h-103.27c-25.105 0-45.479-20.31-45.558-45.415 0-.196.011-.388.015-.583h-25.371c-15.357 0-27.807 12.45-27.807 27.807v286.065c0 15.357 12.45 27.807 27.807 27.807h161.933c15.162 0 27.481-12.137 27.792-27.224z" fill="#433f43"/></g><g><path d="m272.943 114.578h127.477v206.474h-127.477z" fill="#62c389"/></g><g><g><path d="m338.317 104.686h-43.691c-3.242 0-5.871-2.629-5.871-5.871s2.629-5.871 5.871-5.871h43.691c3.242 0 5.871 2.629 5.871 5.871s-2.63 5.871-5.871 5.871z" fill="#444145"/></g></g><g><g><path d="m334.281 98.815h-43.691c-3.242 0-5.871-2.629-5.871-5.871s2.629-5.871 5.871-5.871h43.691c3.242 0 5.871 2.629 5.871 5.871s-2.629 5.871-5.871 5.871z" fill="#8e8391"/></g></g><g><circle cx="312.435" cy="376.728" fill="#8e8391" r="18.875"/></g><g><path d="m185.482 109.067c0 7.224-2.407 13.885-6.464 19.226-5.81 7.65-11.421 5.905-21.768 5.905-17.571 0-28.232-7.987-28.232-25.558s24.65-75.374 24.65-75.374 31.814 58.23 31.814 75.801z" fill="#ddf4fe"/></g><g><path d="m175.862 122.387c-17.571 0-31.815-14.244-31.815-31.814 0-6.804 4.771-19.705 10.618-32.961 3.455-7.834 3.106-16.83-.997-24.345l-.001-.001s-31.815 58.231-31.815 75.801c0 17.571 14.244 31.815 31.815 31.815 10.347 0 19.539-4.941 25.349-12.591 1.862-2.452-.002-5.911-3.081-5.904-.024 0-.049 0-.073 0z" fill="#93dcfc"/></g><g><g><circle cx="313.213" cy="301.779" fill="#fcb54c" r="19.272"/></g><g><path d="m323.268 314.069c-10.644 0-19.272-8.628-19.272-19.272 0-4.318 1.42-8.305 3.819-11.518-8.015 2.335-13.874 9.731-13.874 18.5 0 10.644 8.628 19.272 19.272 19.272 6.326 0 11.939-3.048 15.453-7.755-1.714.5-3.524.773-5.398.773z" fill="#fc9842"/></g><g><path d="m363.552 229.719v-14.181c0-27.801-22.538-50.339-50.339-50.339-27.801 0-50.339 22.537-50.339 50.339v14.181z" fill="#ffd23c"/></g><g><path d="m365.359 262.832c-1.185-2.126-1.807-4.52-1.807-6.954v-6.888h-100.678v6.888c0 2.434-.622 4.828-1.807 6.954l-11.857 21.274c-5.307 9.521 1.577 21.239 12.477 21.239h103.051c10.9 0 17.784-11.717 12.477-21.239z" fill="#ffd23c"/></g><g><path d="m299.355 229.719c-3.506-3.696-5.661-8.685-5.661-14.181 0-22.417 14.657-41.402 34.907-47.919-4.853-1.559-10.018-2.42-15.389-2.42-27.801 0-50.339 22.537-50.339 50.339v14.181z" fill="#fcb54c"/></g><g><path d="m262.874 248.99v6.888c0 2.434-.622 4.828-1.807 6.954l-11.857 21.274c-5.307 9.521 1.577 21.239 12.477 21.239h30.821c-10.9 0-17.784-11.717-12.477-21.239.111-.207.221-.412.33-.615 8.842-16.466 26.018-26.732 44.708-26.732h38.483v-7.769z" fill="#fcb54c"/></g><g><path d="m322.571 147.371c0-5.168-4.19-9.358-9.358-9.358-5.168 0-9.358 4.19-9.358 9.358v20.435h18.716z" fill="#fcb54c"/></g><g><g><path d="m277.345 223.228c-2.432 0-4.403-1.971-4.403-4.403v-14.523c0-2.432 1.971-4.403 4.403-4.403s4.403 1.971 4.403 4.403v14.523c0 2.432-1.97 4.403-4.403 4.403z" fill="#ffd23c"/></g></g><g><g><path d="m270.552 278.532c-.693 0-1.397-.164-2.053-.511-2.15-1.136-2.972-3.8-1.836-5.95l6.279-11.883v-11.217c0-2.432 1.971-4.403 4.403-4.403s4.403 1.971 4.403 4.403v13.401l-7.299 13.814c-.79 1.493-2.317 2.346-3.897 2.346z" fill="#ffd23c"/></g></g><g><path d="m262.874 229.107h42.986v20.607h-42.986z" fill="#fff5aa"/></g><g><path d="m363.552 249.714h-60.906c-5.69 0-10.303-4.613-10.303-10.303 0-5.69 4.613-10.303 10.303-10.303h60.906z" fill="#fff"/></g></g><path d="m343.935 308.182c.026-.048.053-.097.078-.145 1.042-1.933 3.077-3.118 5.273-3.118h28.624c10.9 0 17.784-11.717 12.477-21.238l-11.857-21.274c-2.259-4.054-1.807-2.049-1.807-47.295 0-19.326-10.893-36.099-26.873-44.532-8.659-4.57-14.108-13.523-14.108-23.314 0-4.984-3.762-9.336-8.735-9.658-5.45-.353-9.981 3.963-9.981 9.338v18.71c-43.077 8.897-41.46-51.078-41.46-51.078h-51.116v234.419h175.97v-31.888h-51.213c-4.58-.001-7.467-4.907-5.272-8.927zm-62.273-3.262h25.794c.963 5.123 3.825 9.352 7.85 12.189h-33.645c-3.366 0-6.094-2.729-6.094-6.094 0-3.367 2.729-6.095 6.095-6.095z" fill="#199a8e"/><g><g><circle cx="313.213" cy="301.779" fill="#fcb54c" r="19.272"/></g><g><path d="m323.268 314.069c-10.644 0-19.272-8.628-19.272-19.272 0-4.318 1.42-8.305 3.819-11.518-8.015 2.335-13.874 9.731-13.874 18.5 0 10.644 8.628 19.272 19.272 19.272 6.326 0 11.939-3.048 15.453-7.755-1.714.5-3.524.773-5.398.773z" fill="#fc9842"/></g><g><path d="m313.213 165.198c-.077 0-.155 0-.232.001-11.887.054-21.402 9.927-21.402 21.814v42.706h71.974v-14.181c-.001-27.802-22.539-50.34-50.34-50.34z" fill="#ffd23c"/></g><g><path d="m377.216 284.106-11.857-21.274c-1.185-2.126-1.807-4.52-1.807-6.954v-6.888h-86.77v56.355h87.957c10.899 0 17.783-11.718 12.477-21.239z" fill="#ffd23c"/></g><g><path d="m299.355 229.719c-3.506-3.696-5.661-8.685-5.661-14.181 0-22.417 14.657-41.402 34.907-47.919-4.853-1.559-10.018-2.42-15.389-2.42-27.801 0-50.339 22.537-50.339 50.339v14.181z" fill="#fcb54c"/></g><g><path d="m262.874 248.99v6.888c0 2.434-.622 4.828-1.807 6.954l-11.857 21.274c-5.307 9.521 1.577 21.239 12.477 21.239h30.821c-10.9 0-17.784-11.717-12.477-21.239.111-.207.221-.412.33-.615 8.842-16.466 26.018-26.732 44.708-26.732h38.483v-7.769z" fill="#fcb54c"/></g><g><path d="m322.571 147.371c0-5.168-4.19-9.358-9.358-9.358-5.168 0-9.358 4.19-9.358 9.358v20.435h18.716z" fill="#fcb54c"/></g><g><g><path d="m277.345 223.228c-2.432 0-4.403-1.971-4.403-4.403v-14.523c0-2.432 1.971-4.403 4.403-4.403s4.403 1.971 4.403 4.403v14.523c0 2.432-1.97 4.403-4.403 4.403z" fill="#ffd23c"/></g></g><g><g><path d="m270.552 278.532c-.693 0-1.397-.164-2.053-.511-2.15-1.136-2.972-3.8-1.836-5.95l6.279-11.883v-11.217c0-2.432 1.971-4.403 4.403-4.403s4.403 1.971 4.403 4.403v13.401l-7.299 13.814c-.79 1.493-2.317 2.346-3.897 2.346z" fill="#ffd23c"/></g></g><g><path d="m262.874 229.107h42.986v20.607h-42.986z" fill="#fff5aa"/></g><g><path d="m363.552 249.714h-60.906c-5.69 0-10.303-4.613-10.303-10.303 0-5.69 4.613-10.303 10.303-10.303h60.906z" fill="#fff"/></g></g></g></g></svg>